<?xml version="1.0" encoding="UTF-8" standalone="no"?>
<!-- Created with Inkscape (http://www.inkscape.org/) -->
<svg xmlns:inkscape="http://www.inkscape.org/namespaces/inkscape" xmlns:rdf="http://www.w3.org/1999/02/22-rdf-syntax-ns#" xmlns="http://www.w3.org/2000/svg" xmlns:sodipodi="http://sodipodi.sourceforge.net/DTD/sodipodi-0.dtd" xmlns:cc="http://creativecommons.org/ns#" xmlns:xlink="http://www.w3.org/1999/xlink" xmlns:dc="http://purl.org/dc/elements/1.1/" xmlns:svg="http://www.w3.org/2000/svg" xmlns:ns1="http://sozi.baierouge.fr" id="svg2" sodipodi:docname="manutention_1.svg" viewBox="0 0 399 394" sodipodi:version="0.32" version="1.0" inkscape:output_extension="org.inkscape.output.svg.inkscape" inkscape:version="0.46">
  <sodipodi:namedview id="base" bordercolor="#666666" inkscape:pageshadow="2" inkscape:window-y="4" pagecolor="#ffffff" inkscape:window-height="992" inkscape:zoom="1.4" inkscape:window-x="4" showgrid="false" borderopacity="1.0" inkscape:current-layer="layer2" inkscape:cx="500.66136" inkscape:cy="519.88721" inkscape:window-width="1276" inkscape:pageopacity="0.0" inkscape:document-units="px"/>
  <g id="layer2" inkscape:label="calque" inkscape:groupmode="layer" transform="translate(-175.5 -335.36)">
    <path id="path2474" sodipodi:nodetypes="cccccccccccscccssscccccccccccccccsccsccsscccccccccccccccscccccccsccczccccccssccccsssccczcsscc" style="fill-rule:evenodd;stroke:#000000;stroke-width:1px;fill:#000000" d="m465 367.18c0.87-1.67-0.76-7.42-2.14-10.89-1-4.81 0.48-5.66 1.78-6.78l25-12.15c8.1-2.73 11.72-0.16 14.65 3.22 3.12 3.24 6.58 6.82 9.28 9.64 1.14 3.75 4.02 5.99 2.14 12.32l3.93 16.61-16.43 17.14c-2.64 2.46-5.34 5.05 3.93 0.36l12.5-11.25s1.11 3.85 2.15 5.18c3.85 4.95 16.25 12.5 16.25 12.5 2.38 3.01 3.7 6.03 6.09 9.05 1.15 1.21 1.72 3.95 3.19 5.59 2.64 8.24 7.31 15.57 8.1 23.84 1.15 12.05 7.19 26.41 6.01 39.73l-1.43 16.07c-0.24 2.66-3.06 4.35-5.71 6.07l-32.5 8.22c-4.47 1.66-6.09 4.28 0.35 2.68l32.32-7.86c1.85 3.84 1.73 13.15-0.71 18.13-5.7 17.78-17.99 28.97-28.04 42.41-1.61 3.17-2.57 6.56-5.5 9.29l-17.67 39.83c-10.07 21.74-14.24 40.87-20.4 60.88l-3.03 4.28-0.18 6.25c-0.86 0.51-1.72 2.04-2.58 1.9l-19.21-3.15c-5.86 0.9-12.09 6.5-17.95 7.88-9.18-0.39-18.44-0.55-26.69-3.24-7.24-4.16-6.6-8.86-1.79-10l19.65-4.64c4.32-0.62 6.36-8.03 10.68-9.33 4.17 0.96 8.27 3.39 11.73 3.34 9.09-0.14 2.42-4.11 3.41-2.08 10.73 3.37-11.16-2.11-17.61-4.07 0 0-0.28-1.44 1.29-2.81 2.96-2.59 8.83-6.3 9.96-9.33 13.64-36.77 42-115.97 44.29-113.04 0.05-6.09-1.02-2.76-2.32-1.61l-8.22 17.86 1.43-43.57 7.5 0.36c-4.21-1.61-8.57-3.07-10.17-7.3 19.38-20.93 28.03-33.35 40.01-50.85 9.02-9.91 1.52-5.03 1.23-5.07-14.18 19.43-27.35 39.54-45.36 56.43l-12.14 16.43-5 3.57-5 13.93c-6.31 0.26-12.62 0.72-18.93-1.79-0.02-1.97-2.31-3.67 1.07-6.07l3.22-6.43c-0.16-1.15 1.14-3-0.64-3.64-3.53-1.26-8.29-3.28-11.5-5.64-4.13-2.05-5-3.67 1.78-4.29l10 1.07 12.86-2.85-1.43-3.93 1.43-3.22 26.07-37.14s1.07-20.36 0.71-21.79c-0.35-1.42-3.57 14.29-3.57 14.29l-16.78 10.71c-7.41 7.3-13.75 16.18-21.15 21.54 0 0-1.21 1.69-2.78 2.04-1.57 0.34-7.14-1.43-7.14-1.43l-7.86 4.64-29.64-19.64c6.01-2.25 9.29 0.88 14.28 2.14l11.07-3.21c1.59-4.8 5.98-6.32 10.36-7.86 10.5-12.19 12.8-11.78 20-17.86l20.71-17.5c2.38-3.42 5.29-10.3 11.97-15l4.46-1.43v-5l-3.21 0.36c-2.31 0.92-1.74-6.67-3.22-6.43-0.11 0.02-0.96-2.23-2.07-4.19-0.87-1.52-1.9-2.87-2.87-2.83-3.55 0.14-6.24-0.34-5.95-2.8l0.89-8.39 1.43-2.15s-1.92-1.6-2.14-2.67c-0.22-1.08 1.07-3.75 1.07-3.75s-1.92-2.69-0.5-3.3c24.18-10.44-0.75-1.8-1.46-1.88-1.83-0.21-15.57 3.5-15.18 1.96-0.65-2.2 9.04-4.4 13.57-6.61z"/>
    <path id="path3246" sodipodi:nodetypes="cccccccscc" style="fill-rule:evenodd;stroke:#000000;stroke-width:1px;fill:#000000" d="m485.88 683.66c5.6 0.69 10.38 2.62 17.18 1.51l0.5 4.04 17.68 0.25 0.57-7.74c1.44-0.63 4.15-4.97 2.13-10.1 0.43-14.92-1.93-63.93-1.44-90.49-13.32 22.3-20.18 46.05-26.83 67-2 6.29-4.71 11.93-6.5 18.35l-3.29 17.18z"/>
  </g>
  <g id="layer3" sodipodi:insensitive="true" inkscape:label="caisse" inkscape:groupmode="layer" transform="translate(-175.5 -335.36)">
    <path id="path3249" style="fill-rule:evenodd;stroke:#000000;stroke-width:1px;fill:#000000" d="m306.53 430.94c-1.37 0.1-2.37 1.01-2.97 2.84l-97.84 180c-0.78 2.74-2.6 4.78-0.72 9.28l13.56 57.88c1.44 1.43 2.29 2.66 6.44 5l134.28 42.12 5.72-3.56 103.56-183.56c-1.38-0.61-1.64-4.55-2.12-7.88l-36.44-36.4-116.44-62.16c-2.91-2.46-5.27-3.69-7.03-3.56zm13.47 9.62l106.78 58.94 7.88 6.44 2.84 4.28 3.22-1.78 22.84 25.34 1.78 2.88-10.34-3.22-0.34 2.5 8.56 3.56-1.44 3.94-98.56 173.56c-1.91 2.6-3.82 2.72-5.72 2.5l-131.44-39.62 2.16-4.32 107.5-190.68 4.62-0.72 93.22 43.22 1.78-3.94-96.4-45.38-1.78-3.9-19.66-31.78 2.5-1.82zm-12.5 0.94c1.26 0 2.84 1.22 2.84 1.22l20.38 32.16c0.8 2.09 1.09 4.45 0 7.5l-105 185.68c-3.22 5.38-3.91 0.58-5.38-1.06l-9.62-48.56 1.44-7.16c0.71 0 93.21-167.85 94.28-169.28 0.27-0.36 0.64-0.5 1.06-0.5z"/>
  </g>
  <metadata>
    <rdf:RDF>
      <cc:Work>
        <dc:format>image/svg+xml</dc:format>
        <dc:type rdf:resource="http://purl.org/dc/dcmitype/StillImage"/>
        <cc:license rdf:resource="http://creativecommons.org/licenses/publicdomain/"/>
        <dc:publisher>
          <cc:Agent rdf:about="http://openclipart.org/">
            <dc:title>Openclipart</dc:title>
          </cc:Agent>
        </dc:publisher>
        <dc:title>Fragile</dc:title>
        <dc:date>2010-09-21T21:24:33</dc:date>
        <dc:description>This clipart is a remake from a book by Hans Rudolf Lutz\n "Today's Hieroglyphs", Niggli Verlag, septembre 2009\nAll the illustration of this book are in public domain.</dc:description>
        <dc:source>https://openclipart.org/detail/86251/fragile-by-cybergedeon</dc:source>
        <dc:creator>
          <cc:Agent>
            <dc:title>dominiquechappard</dc:title>
          </cc:Agent>
        </dc:creator>
        <dc:subject>
          <rdf:Bag>
            <rdf:li>fragile</rdf:li>
            <rdf:li>move</rdf:li>
            <rdf:li>worker</rdf:li>
          </rdf:Bag>
        </dc:subject>
      </cc:Work>
      <cc:License rdf:about="http://creativecommons.org/licenses/publicdomain/">
        <cc:permits rdf:resource="http://creativecommons.org/ns#Reproduction"/>
        <cc:permits rdf:resource="http://creativecommons.org/ns#Distribution"/>
        <cc:permits rdf:resource="http://creativecommons.org/ns#DerivativeWorks"/>
      </cc:License>
    </rdf:RDF>
  </metadata>
</svg>