<?xml version="1.0" encoding="UTF-8" standalone="no"?>
<!-- Generator: Adobe Illustrator 23.0.0, SVG Export Plug-In . SVG Version: 6.00 Build 0)  -->
<svg xmlns:dc="http://purl.org/dc/elements/1.1/" xmlns:cc="http://creativecommons.org/ns#" xmlns:rdf="http://www.w3.org/1999/02/22-rdf-syntax-ns#" xmlns:svg="http://www.w3.org/2000/svg" xmlns="http://www.w3.org/2000/svg" xmlns:sodipodi="http://sodipodi.sourceforge.net/DTD/sodipodi-0.dtd" xmlns:inkscape="http://www.inkscape.org/namespaces/inkscape" version="1.0" x="0px" y="0px" viewBox="0 0 341.98998 118.72002" xml:space="preserve" id="svg4542" sodipodi:docname="35C3Logo_pur.svg" inkscape:version="0.92.2 (5c3e80d, 2017-08-06)" width="341.98999" height="118.72"><metadata id="metadata4548"><rdf:RDF><cc:Work rdf:about=""><dc:format>image/svg+xml</dc:format><dc:type rdf:resource="http://purl.org/dc/dcmitype/StillImage"/><dc:title/></cc:Work></rdf:RDF></metadata><defs id="defs4546"/><sodipodi:namedview pagecolor="#ffffff" bordercolor="#666666" borderopacity="1" objecttolerance="10" gridtolerance="10" guidetolerance="10" inkscape:pageopacity="0" inkscape:pageshadow="2" inkscape:window-width="1920" inkscape:window-height="1051" id="namedview4544" showgrid="false" inkscape:zoom="2.6350543" inkscape:cx="313.92187" inkscape:cy="-40.361181" inkscape:window-x="-9" inkscape:window-y="-9" inkscape:window-maximized="1" inkscape:current-layer="svg4542"/><style type="text/css" id="style4527">
	.st0{fill:#1D1D1B;}
	.st1{fill:url(#SVGID_1_);}
</style><g id="Back" transform="translate(0,-206.88978)"/><g id="Logo" transform="translate(-30.008497,-102.32779)"><g id="g4539"><linearGradient id="SVGID_1_" gradientUnits="userSpaceOnUse" x1="28.525999" y1="152.2847" x2="371.50049" y2="152.2847" gradientTransform="translate(1.1384965,1.8974941)"><stop offset="0" style="stop-color:#0084B1" id="stop4532"/><stop offset="1" style="stop-color:#00A255" id="stop4534"/></linearGradient><path class="st1" d="m 233.0785,208.0775 h -60.89 v -31.13 h 23.24 c 0.51,2.93 3.05,5.17 6.14,5.17 3.45,0 6.24,-2.8 6.24,-6.24 0,-1.04 -0.27,-1.99 -0.72,-2.85 l 25.99,-17.73 z m -31.52,-36.48 c 2.35,0 4.27,1.91 4.27,4.27 0,2.35 -1.91,4.26 -4.27,4.26 -2.36,0 -4.27,-1.91 -4.27,-4.26 0,-2.36 1.91,-4.27 4.27,-4.27 m 31.52,-18.81 -27.22,18.56 c -1.12,-1.07 -2.63,-1.74 -4.3,-1.74 -3.11,0 -5.67,2.29 -6.15,5.26 h -23.23 c 0,0 0.03,-10.6 0.03,-12.4 0,-5.49 -4.46,-9.95 -9.95,-9.95 -5.5,0 -9.95,4.46 -9.95,9.95 0,0.11 -0.04,4.01 -0.04,5.4 h -30.88 c 0.86,2.36 1.51,4.91 1.91,7.71 0.45,3.09 0.75,6.84 0.94,11.13 h 28.03 v 15.63 c 0,2.06 0.01,5.72 0.01,5.72 h -29.38 c -0.49,-2.96 -3.04,-5.22 -6.14,-5.22 -3.1,0 -5.65,2.26 -6.14,5.22 H 86.338497 c -0.01,-0.02 0,-15.35 0,-15.35 0,-15.53 -3.71,-20.85 -13.72,-23 -1.71,-0.37 -5.39,-0.34 -5.39,-0.34 v -15.83 H 109.2985 c 3.95,2.32 6.98,5.06 9.07,8.22 0.11,0.16 0.16,0.38 0.27,0.54 v -19.29 c -2.33,3.69 -5.15,6.53 -9.43,8.46 H 67.228497 v -15.09 c 6.56,0 10.91,-1.47 14.19,-4.4 3.28,-2.92 4.96,-7.6 4.93,-14.02 -0.01,-1.42 -0.03,-1.47 -0.03,-1.47 H 110.4985 c 0.5,2.95 3.05,5.2 6.14,5.2 3.09,0 5.64,-2.25 6.14,-5.2 h 29.49 v 13.89 c 1.85,-2.43 4.35,-4.42 7.5,-6 3.14,-1.57 6.71,-2.35 10.71,-2.35 10.53,0 18.73,2.59 24.7,7.66 v -5.95 c 0,-2.52 0.1,-4.91 0.24,-7.25 h 37.66 z m -112.17,-37.33 c 0,2.35 -1.91,4.27 -4.27,4.27 -2.35,0 -4.27,-1.91 -4.27,-4.27 0,-2.35 1.91,-4.26 4.27,-4.26 2.37,-0.01 4.27,1.9 4.27,4.26 m -8.43,93.64 c 0,-2.35 1.91,-4.27 4.27,-4.27 2.36,0 4.27,1.91 4.27,4.27 0,2.35 -1.91,4.26 -4.27,4.26 -2.35,0.01 -4.27,-1.9 -4.27,-4.26 m 255.19,-45.61 c 2.09,3.16 3.44,7.04 4.33,11.37 v -41.04 c -0.63,3.07 -1.43,5.88 -2.51,8.25 -2.23,4.89 -5.85,8.52 -10.87,10.88 h -42.33 v -14.85 c 6.57,0 11.15,-1.46 14.44,-4.39 3.28,-2.92 4.47,-7.67 4.47,-14.09 v -7.73 c 0,-5.28 -4.23,-9.56 -9.45,-9.56 -5.22,0 -9.45,4.28 -9.45,9.56 0,1.09 0.05,7.11 -0.07,8.22 v 5.57 h -29.39 v 17.78 h -36.62 v -27.2 c 0,-1.24 -0.06,-4.61 -0.06,-5.38 0,-4.72 -3.82,-8.54 -8.54,-8.54 -4.72,0 -8.54,3.83 -8.54,8.54 0,0.74 0.07,3.01 0.05,3.56 h -37.58 c 0.28,-3.51 0.71,-6.84 1.3,-9.96 h -44.57 v 9.96 h -29.49 c -0.49,-2.96 -3.04,-5.23 -6.14,-5.23 -3.1,0 -5.65,2.27 -6.14,5.23 H 86.338497 v -2.55 c 0,-5.28 -4.28,-9.56 -9.55,-9.56 -5.28,0 -9.55,4.28 -9.55,9.56 0,1.01 0.06,12.08 0.06,12.08 h -37.29 v 60.18 h 37.23 v 27.34 c 0,5.28 4.28,9.56 9.55,9.56 5.28,0 9.55,-4.28 9.55,-9.56 v -1.35 H 110.6085 c 0.5,2.95 3.05,5.21 6.14,5.21 3.1,0 5.64,-2.26 6.14,-5.21 h 29.39 v 0.94 c 0,5.5 4.46,9.96 9.96,9.96 5.5,0 9.97,-4.46 9.97,-9.96 0,-0.3 -0.06,-0.58 -0.09,-0.87 0,-0.02 0.01,-0.04 0.01,-0.07 h 60.94 v 2.37 c 0,4.72 3.82,8.54 8.54,8.54 4.72,0 8.54,-3.82 8.54,-8.54 0,-0.41 0.06,-3.17 0.06,-4.37 v -33.2 h 36.62 v 10.92 h 29.46 v 19.28 6.35 c 0,5.28 4.23,9.56 9.45,9.56 5.22,0 9.45,-4.28 9.45,-9.56 0,-0.69 0.03,-8.15 0.03,-12.35 v -4.49 c 0,-15.85 -4.12,-21.24 -11.36,-23.15 -2.26,-0.6 -7.58,-0.41 -7.58,-0.41 v -16.08 h 42.32 c 4.16,2.37 6.91,5.2 9.07,8.48" id="path4537" style="fill:url(#SVGID_1_)" inkscape:connector-curvature="0" sodipodi:nodetypes="ccccssccccssscccsccssscccccsccscccccccccccccccccsccccscsccccsscccssccccccccccsssscccccssssccccccsccsssccccsssccsccssscccsssscccccsssssccccc"/></g></g></svg>